<svg width="18" height="18" viewBox="0 0 18 18" fill="none" xmlns="http://www.w3.org/2000/svg">
<path fill-rule="evenodd" clip-rule="evenodd" d="M7.49998 1.89998C4.40718 1.89998 1.89998 4.40718 1.89998 7.49998C1.89998 10.5928 4.40718 13.1 7.49998 13.1C9.04662 13.1 10.4454 12.4742 11.4598 11.4598C12.4742 10.4454 13.1 9.04662 13.1 7.49998C13.1 4.40718 10.5928 1.89998 7.49998 1.89998ZM0.0999756 7.49998C0.0999756 3.41307 3.41307 0.0999756 7.49998 0.0999756C11.5869 0.0999756 14.9 3.41307 14.9 7.49998C14.9 9.21871 14.3132 10.8016 13.3303 12.0575L17.6364 16.3636C17.9878 16.7151 17.9878 17.2849 17.6364 17.6364C17.2849 17.9878 16.7151 17.9878 16.3636 17.6364L12.0575 13.3303C10.8016 14.3132 9.21871 14.9 7.49998 14.9C3.41307 14.9 0.0999756 11.5869 0.0999756 7.49998Z" fill="#768298"/>
</svg>
